<svg id="Layer_1" data-name="Layer 1" xmlns="http://www.w3.org/2000/svg" viewBox="0 0 209 214.42"><defs><style>.cls-1{fill:#22b573;}.cls-2{font-size:36px;font-family:Inter-Bold, Inter;font-weight:700;letter-spacing:-0.08em;}.cls-2,.cls-5{fill:#fff;}.cls-3{letter-spacing:-0.07em;}.cls-4{letter-spacing:0em;}</style></defs><rect width="209" height="179"/><path class="cls-1" d="M791.41,493.79h0c1.87-1.88-6.33-44.15-29.95-63.77-25.21-20.93-48.59.36-80.46-17-39.67-21.63-38-73.47-50.11-72.57C614.16,341.68,574,442.87,628.24,498,681.08,551.66,784.46,520.62,791.41,493.79Z" transform="translate(-583 -313)"/><text class="cls-2" transform="translate(115.27 70.68) scale(0.92 1)">P<tspan class="cls-3" x="20.29" y="0">A</tspan><tspan class="cls-4" x="44.55" y="0">W</tspan></text><path class="cls-5" d="M673.35,377.81a14.66,14.66,0,0,1-5.15-9.25c-.08-.63-.77-5.58,1-6.68s3.84,2.29,6,1.15c1.42-.73,1-2.38,2.8-3.6a4.41,4.41,0,0,1,4.7-.25c1.65,1.05,1.2,2.8,2.57,3.6,2.24,1.3,4.86-2.57,6.6-1.42s.8,6.76.67,7.46a14.87,14.87,0,0,1-3.13,6.94,12,12,0,0,1-9.29,4.24A10.9,10.9,0,0,1,673.35,377.81Z" transform="translate(-583 -313)"/></svg>